<mxfile host="app.diagrams.net" modified="2024-02-09T00:39:07.537Z" agent="Mozilla/5.0 (Windows NT 10.0; Win64; x64) AppleWebKit/537.36 (KHTML, like Gecko) Chrome/120.0.0.0 YaBrowser/24.1.0.0 Safari/537.36" etag="rfTBIdMS-aIhFEAd1_Xq" version="23.1.1" type="github">
  <diagram name="Страница — 1" id="5anYTEtwxTSjSjOC5PJp">
    <mxGraphModel dx="956" dy="546" grid="1" gridSize="10" guides="1" tooltips="1" connect="1" arrows="1" fold="1" page="1" pageScale="1" pageWidth="1169" pageHeight="827" math="0" shadow="0">
      <root>
        <mxCell id="0" />
        <mxCell id="1" parent="0" />
        <mxCell id="h9wAtkLOoiahdPok4-T_-1" value="Тестовое задание Калькулятор" style="text;html=1;strokeColor=none;fillColor=none;align=center;verticalAlign=middle;whiteSpace=wrap;rounded=0;fontStyle=1;horizontal=1;fontSize=20;" vertex="1" parent="1">
          <mxGeometry x="375" y="20" width="420" height="70" as="geometry" />
        </mxCell>
        <mxCell id="h9wAtkLOoiahdPok4-T_-6" style="edgeStyle=orthogonalEdgeStyle;rounded=0;orthogonalLoop=1;jettySize=auto;html=1;exitX=0;exitY=0.5;exitDx=0;exitDy=0;entryX=0;entryY=0.5;entryDx=0;entryDy=0;" edge="1" parent="1" source="h9wAtkLOoiahdPok4-T_-2" target="h9wAtkLOoiahdPok4-T_-7">
          <mxGeometry relative="1" as="geometry">
            <mxPoint x="90" y="290.0000000000001" as="targetPoint" />
          </mxGeometry>
        </mxCell>
        <mxCell id="h9wAtkLOoiahdPok4-T_-2" value="1. Данные передаются в виде одной строки" style="rounded=0;whiteSpace=wrap;html=1;" vertex="1" parent="1">
          <mxGeometry x="150" y="110" width="130" height="60" as="geometry" />
        </mxCell>
        <mxCell id="h9wAtkLOoiahdPok4-T_-3" value="2. Умеет работать как с арабскими, так и с римскими числами" style="rounded=0;whiteSpace=wrap;html=1;" vertex="1" parent="1">
          <mxGeometry x="320" y="110" width="130" height="60" as="geometry" />
        </mxCell>
        <mxCell id="h9wAtkLOoiahdPok4-T_-4" value="3. Операнды в диапазоне от 1 до 10 включительно" style="rounded=0;whiteSpace=wrap;html=1;" vertex="1" parent="1">
          <mxGeometry x="490" y="110" width="130" height="60" as="geometry" />
        </mxCell>
        <mxCell id="h9wAtkLOoiahdPok4-T_-5" value="4. Принимает и возвращает только целые числа" style="rounded=0;whiteSpace=wrap;html=1;" vertex="1" parent="1">
          <mxGeometry x="660" y="110" width="130" height="60" as="geometry" />
        </mxCell>
        <mxCell id="h9wAtkLOoiahdPok4-T_-7" value="" style="rounded=0;whiteSpace=wrap;html=1;" vertex="1" parent="1">
          <mxGeometry x="150" y="250.0000000000001" width="120" height="60" as="geometry" />
        </mxCell>
      </root>
    </mxGraphModel>
  </diagram>
</mxfile>
